<svg width="30" height="30" viewBox="0 0 30 30" fill="none" xmlns="http://www.w3.org/2000/svg">
<path d="M15 17.5C13.9583 17.5 13.0729 17.1354 12.3438 16.4062C11.6146 15.6771 11.25 14.7917 11.25 13.75V6.25C11.25 5.20833 11.6146 4.32292 12.3438 3.59375C13.0729 2.86458 13.9583 2.5 15 2.5C16.0417 2.5 16.9271 2.86458 17.6562 3.59375C18.3854 4.32292 18.75 5.20833 18.75 6.25V13.75C18.75 14.7917 18.3854 15.6771 17.6562 16.4062C16.9271 17.1354 16.0417 17.5 15 17.5ZM13.75 26.25V22.4063C11.5833 22.1146 9.79167 21.1458 8.375 19.5C6.95833 17.8542 6.25 15.9375 6.25 13.75H8.75C8.75 15.4792 9.35938 16.9531 10.5781 18.1719C11.7969 19.3906 13.2708 20 15 20C16.7292 20 18.2031 19.3906 19.4219 18.1719C20.6406 16.9531 21.25 15.4792 21.25 13.75H23.75C23.75 15.9375 23.0417 17.8542 21.625 19.5C20.2083 21.1458 18.4167 22.1146 16.25 22.4063V26.25H13.75Z" fill="#00487C"/>
</svg>
